<svg xmlns="http://www.w3.org/2000/svg" width="22.354" height="20.398" viewBox="0 0 22.354 20.398">
  <path id="search_icon" data-name="search icon" d="M-1304.059-65.27l-5.175-4.716a9.485,9.485,0,0,1-5.775,1.919c-4.957,0-8.991-3.677-8.991-8.2s4.033-8.2,8.991-8.2,8.991,3.677,8.991,8.2a7.741,7.741,0,0,1-2.1,5.26l5.172,4.714a.672.672,0,0,1,.064.949.647.647,0,0,1-.064.065.827.827,0,0,1-.556.209v.006h-.008A.821.821,0,0,1-1304.059-65.27Zm-18.369-10.993c0,3.728,3.328,6.762,7.419,6.762a7.782,7.782,0,0,0,5.129-1.882q.017-.023.035-.045a.789.789,0,0,1,.071-.07.853.853,0,0,1,.11-.082,6.441,6.441,0,0,0,2.072-4.684c0-3.728-3.328-6.762-7.417-6.762S-1322.427-79.991-1322.427-76.263Zm1.656.884a4.649,4.649,0,0,1,1.536-3.971.842.842,0,0,1,1.112,0,.672.672,0,0,1,.064.949.635.635,0,0,1-.064.065,3.292,3.292,0,0,0-1.085,2.814.736.736,0,0,1-.687.783l-.017,0h-.079v0h-.028A.762.762,0,0,1-1320.772-75.378Z" transform="translate(1324.5 84.958)" fill="#7b7b7b" stroke="rgba(0,0,0,0)" stroke-width="1"/>
</svg>
